<svg width="100" height="100" viewBox="0 0 100 100" xmlns="http://www.w3.org/2000/svg">
  <rect x="20" y="20" width="20" height="20" fill="#6C5CE7" opacity="0.8"/>
  <rect x="60" y="20" width="20" height="20" fill="#6C5CE7" opacity="0.8"/>
  <rect x="20" y="60" width="20" height="20" fill="#6C5CE7" opacity="0.8"/>
  <rect x="60" y="60" width="20" height="20" fill="#6C5CE7" opacity="0.8"/>
  <rect x="40" y="40" width="20" height="20" fill="#A29BFE" opacity="0.8"/>
  <path d="M40,30 L60,30" stroke="#74B9FF" stroke-width="2" fill="none" opacity="0.8"/>
  <path d="M40,50 L60,50" stroke="#74B9FF" stroke-width="2" fill="none" opacity="0.8"/>
  <path d="M30,40 L30,60" stroke="#74B9FF" stroke-width="2" fill="none" opacity="0.8"/>
  <path d="M50,40 L50,60" stroke="#74B9FF" stroke-width="2" fill="none" opacity="0.8"/>
  <path d="M40,30 L30,40" stroke="#74B9FF" stroke-width="2" fill="none" opacity="0.8"/>
  <path d="M60,30 L70,40" stroke="#74B9FF" stroke-width="2" fill="none" opacity="0.8"/>
  <path d="M40,50 L30,60" stroke="#74B9FF" stroke-width="2" fill="none" opacity="0.8"/>
  <path d="M60,50 L70,60" stroke="#74B9FF" stroke-width="2" fill="none" opacity="0.8"/>
  <circle cx="40" cy="30" r="2" fill="#FFD93D" opacity="0.9"/>
  <circle cx="60" cy="30" r="2" fill="#FFD93D" opacity="0.9"/>
  <circle cx="40" cy="50" r="2" fill="#FFD93D" opacity="0.9"/>
  <circle cx="60" cy="50" r="2" fill="#FFD93D" opacity="0.9"/>
  <circle cx="30" cy="40" r="2" fill="#FFD93D" opacity="0.9"/>
  <circle cx="50" cy="40" r="2" fill="#FFD93D" opacity="0.9"/>
  <circle cx="30" cy="60" r="2" fill="#FFD93D" opacity="0.9"/>
  <circle cx="50" cy="60" r="2" fill="#FFD93D" opacity="0.9"/>
</svg>

