<svg width="100" height="100" viewBox="0 0 100 100" xmlns="http://www.w3.org/2000/svg">
  <circle cx="50" cy="50" r="35" fill="#FFD93D" opacity="0.9"/>
  <path d="M35,30 L45,30 L45,25 L50,25 L50,30 L55,30 L55,35 L50,35 L50,45 L55,45 L55,50 L50,50 L50,55 L45,55 L45,50 L40,50 L40,45 L45,45 L45,35 L40,35 L40,30 Z" fill="#2D3436" opacity="0.9"/>
  <path d="M40,35 L45,35 L45,45 L40,45 Z" fill="#FFD93D" opacity="0.9"/>
  <path d="M45,35 L50,35 L50,45 L45,45 Z" fill="#FFD93D" opacity="0.9"/>
  <path d="M40,45 L45,45 L45,50 L40,50 Z" fill="#FFD93D" opacity="0.9"/>
  <path d="M45,45 L50,45 L50,50 L45,50 Z" fill="#FFD93D" opacity="0.9"/>
</svg>

