<svg width="100" height="100" viewBox="0 0 100 100" xmlns="http://www.w3.org/2000/svg">
  <rect x="15" y="20" width="20" height="20" fill="#6C5CE7" opacity="0.8"/>
  <rect x="45" y="20" width="20" height="20" fill="#6C5CE7" opacity="0.8"/>
  <rect x="75" y="20" width="20" height="20" fill="#6C5CE7" opacity="0.8"/>
  <rect x="15" y="50" width="20" height="20" fill="#6C5CE7" opacity="0.8"/>
  <rect x="45" y="50" width="20" height="20" fill="#6C5CE7" opacity="0.8"/>
  <rect x="75" y="50" width="20" height="20" fill="#6C5CE7" opacity="0.8"/>
  <rect x="15" y="80" width="20" height="20" fill="#6C5CE7" opacity="0.8"/>
  <rect x="45" y="80" width="20" height="20" fill="#6C5CE7" opacity="0.8"/>
  <rect x="75" y="80" width="20" height="20" fill="#6C5CE7" opacity="0.8"/>
  <line x1="35" y1="30" x2="45" y2="30" stroke="#A29BFE" stroke-width="2" opacity="0.8"/>
  <line x1="65" y1="30" x2="75" y2="30" stroke="#A29BFE" stroke-width="2" opacity="0.8"/>
  <line x1="35" y1="60" x2="45" y2="60" stroke="#A29BFE" stroke-width="2" opacity="0.8"/>
  <line x1="65" y1="60" x2="75" y2="60" stroke="#A29BFE" stroke-width="2" opacity="0.8"/>
  <line x1="35" y1="90" x2="45" y2="90" stroke="#A29BFE" stroke-width="2" opacity="0.8"/>
  <line x1="65" y1="90" x2="75" y2="90" stroke="#A29BFE" stroke-width="2" opacity="0.8"/>
  <line x1="25" y1="40" x2="25" y2="50" stroke="#A29BFE" stroke-width="2" opacity="0.8"/>
  <line x1="55" y1="40" x2="55" y2="50" stroke="#A29BFE" stroke-width="2" opacity="0.8"/>
  <line x1="85" y1="40" x2="85" y2="50" stroke="#A29BFE" stroke-width="2" opacity="0.8"/>
  <line x1="25" y1="70" x2="25" y2="80" stroke="#A29BFE" stroke-width="2" opacity="0.8"/>
  <line x1="55" y1="70" x2="55" y2="80" stroke="#A29BFE" stroke-width="2" opacity="0.8"/>
  <line x1="85" y1="70" x2="85" y2="80" stroke="#A29BFE" stroke-width="2" opacity="0.8"/>
  <circle cx="25" cy="30" r="2" fill="#FFD93D" opacity="0.9"/>
  <circle cx="55" cy="30" r="2" fill="#FFD93D" opacity="0.9"/>
  <circle cx="85" cy="30" r="2" fill="#FFD93D" opacity="0.9"/>
  <circle cx="25" cy="60" r="2" fill="#FFD93D" opacity="0.9"/>
  <circle cx="55" cy="60" r="2" fill="#FFD93D" opacity="0.9"/>
  <circle cx="85" cy="60" r="2" fill="#FFD93D" opacity="0.9"/>
  <circle cx="25" cy="90" r="2" fill="#FFD93D" opacity="0.9"/>
  <circle cx="55" cy="90" r="2" fill="#FFD93D" opacity="0.9"/>
  <circle cx="85" cy="90" r="2" fill="#FFD93D" opacity="0.9"/>
</svg>

