<svg width="100" height="100" viewBox="0 0 100 100" xmlns="http://www.w3.org/2000/svg">
  <rect x="15" y="15" width="20" height="20" fill="#6C5CE7" opacity="0.8"/>
  <rect x="65" y="15" width="20" height="20" fill="#6C5CE7" opacity="0.8"/>
  <rect x="15" y="65" width="20" height="20" fill="#6C5CE7" opacity="0.8"/>
  <rect x="65" y="65" width="20" height="20" fill="#6C5CE7" opacity="0.8"/>
  <rect x="40" y="40" width="20" height="20" fill="#A29BFE" opacity="0.8"/>
  <path d="M35,25 L45,40" stroke="#74B9FF" stroke-width="2" fill="none" opacity="0.8"/>
  <path d="M55,40 L65,25" stroke="#74B9FF" stroke-width="2" fill="none" opacity="0.8"/>
  <path d="M35,75 L45,60" stroke="#74B9FF" stroke-width="2" fill="none" opacity="0.8"/>
  <path d="M55,60 L65,75" stroke="#74B9FF" stroke-width="2" fill="none" opacity="0.8"/>
  <path d="M25,35 L40,45" stroke="#74B9FF" stroke-width="2" fill="none" opacity="0.8"/>
  <path d="M60,45 L75,35" stroke="#74B9FF" stroke-width="2" fill="none" opacity="0.8"/>
  <path d="M25,55 L40,45" stroke="#74B9FF" stroke-width="2" fill="none" opacity="0.8"/>
  <path d="M60,45 L75,55" stroke="#74B9FF" stroke-width="2" fill="none" opacity="0.8"/>
  <circle cx="40" cy="40" r="2" fill="#FFD93D" opacity="0.9"/>
  <circle cx="60" cy="40" r="2" fill="#FFD93D" opacity="0.9"/>
  <circle cx="40" cy="60" r="2" fill="#FFD93D" opacity="0.9"/>
  <circle cx="60" cy="60" r="2" fill="#FFD93D" opacity="0.9"/>
</svg>

