<svg xmlns="http://www.w3.org/2000/svg" viewBox="0 0 300 200">
  <defs>
    <radialGradient id="flower-center" cx="50%" cy="50%" r="50%">
      <stop offset="0%" style="stop-color:#FFD700;stop-opacity:1" />
      <stop offset="100%" style="stop-color:#FFA500;stop-opacity:1" />
    </radialGradient>
  </defs>
  
  <!-- Flower 1 - Pink -->
  <g transform="translate(50, 100)">
    <!-- Petals -->
    <ellipse cx="0" cy="-20" rx="15" ry="25" fill="#FFB6C1" transform="rotate(0)"/>
    <ellipse cx="20" cy="0" rx="15" ry="25" fill="#FFB6C1" transform="rotate(0)"/>
    <ellipse cx="0" cy="20" rx="15" ry="25" fill="#FFB6C1" transform="rotate(0)"/>
    <ellipse cx="-20" cy="0" rx="15" ry="25" fill="#FFB6C1" transform="rotate(0)"/>
    <!-- Center -->
    <circle cx="0" cy="0" r="12" fill="url(#flower-center)"/>
    <!-- Stem -->
    <line x1="0" y1="0" x2="0" y2="60" stroke="#228B22" stroke-width="3"/>
  </g>
  
  <!-- Flower 2 - Purple -->
  <g transform="translate(150, 80)">
    <!-- Petals -->
    <ellipse cx="0" cy="-18" rx="12" ry="22" fill="#DDA0DD" transform="rotate(45)"/>
    <ellipse cx="18" cy="0" rx="12" ry="22" fill="#DDA0DD" transform="rotate(45)"/>
    <ellipse cx="0" cy="18" rx="12" ry="22" fill="#DDA0DD" transform="rotate(45)"/>
    <ellipse cx="-18" cy="0" rx="12" ry="22" fill="#DDA0DD" transform="rotate(45)"/>
    <!-- Center -->
    <circle cx="0" cy="0" r="10" fill="url(#flower-center)"/>
    <!-- Stem -->
    <line x1="0" y1="0" x2="0" y2="50" stroke="#228B22" stroke-width="2"/>
  </g>
  
  <!-- Flower 3 - Blue -->
  <g transform="translate(250, 120)">
    <!-- Petals -->
    <ellipse cx="0" cy="-16" rx="10" ry="20" fill="#87CEEB" transform="rotate(90)"/>
    <ellipse cx="16" cy="0" rx="10" ry="20" fill="#87CEEB" transform="rotate(90)"/>
    <ellipse cx="0" cy="16" rx="10" ry="20" fill="#87CEEB" transform="rotate(90)"/>
    <ellipse cx="-16" cy="0" rx="10" ry="20" fill="#87CEEB" transform="rotate(90)"/>
    <!-- Center -->
    <circle cx="0" cy="0" r="8" fill="url(#flower-center)"/>
    <!-- Stem -->
    <line x1="0" y1="0" x2="0" y2="40" stroke="#228B22" stroke-width="2"/>
  </g>
</svg>

