<svg width="100" height="100" viewBox="0 0 100 100" xmlns="http://www.w3.org/2000/svg">
  <polygon points="25,20 35,15 45,20 45,30 35,35 25,30" fill="#FF6B6B" opacity="0.8"/>
  <polygon points="55,20 65,15 75,20 75,30 65,35 55,30" fill="#4ECDC4" opacity="0.8"/>
  <polygon points="25,50 35,45 45,50 45,60 35,65 25,60" fill="#45B7D1" opacity="0.8"/>
  <polygon points="55,50 65,45 75,50 75,60 65,65 55,60" fill="#96CEB4" opacity="0.8"/>
  <polygon points="40,35 50,30 60,35 60,45 50,50 40,45" fill="#FFD93D" opacity="0.8"/>
</svg>
