<svg width="100" height="100" viewBox="0 0 100 100" xmlns="http://www.w3.org/2000/svg">
  <circle cx="30" cy="30" r="8" fill="#6C5CE7" opacity="0.8"/>
  <circle cx="70" cy="30" r="8" fill="#6C5CE7" opacity="0.8"/>
  <circle cx="30" cy="70" r="8" fill="#6C5CE7" opacity="0.8"/>
  <circle cx="70" cy="70" r="8" fill="#6C5CE7" opacity="0.8"/>
  <circle cx="50" cy="50" r="8" fill="#6C5CE7" opacity="0.8"/>
  <path d="M30,30 Q40,40 50,50 Q60,40 70,30" stroke="#A29BFE" stroke-width="2" fill="none" opacity="0.8"/>
  <path d="M30,70 Q40,60 50,50 Q60,60 70,70" stroke="#A29BFE" stroke-width="2" fill="none" opacity="0.8"/>
  <path d="M30,30 Q40,60 50,50 Q60,40 70,70" stroke="#A29BFE" stroke-width="2" fill="none" opacity="0.8"/>
  <path d="M30,70 Q40,40 50,50 Q60,60 70,30" stroke="#A29BFE" stroke-width="2" fill="none" opacity="0.8"/>
  <circle cx="50" cy="50" r="3" fill="#FFD93D" opacity="0.9"/>
</svg>

