<svg width="100" height="100" viewBox="0 0 100 100" xmlns="http://www.w3.org/2000/svg">
  <circle cx="20" cy="20" r="5" fill="#6C5CE7" opacity="0.8"/>
  <circle cx="40" cy="20" r="5" fill="#6C5CE7" opacity="0.8"/>
  <circle cx="60" cy="20" r="5" fill="#6C5CE7" opacity="0.8"/>
  <circle cx="80" cy="20" r="5" fill="#6C5CE7" opacity="0.8"/>
  <circle cx="30" cy="40" r="5" fill="#A29BFE" opacity="0.8"/>
  <circle cx="50" cy="40" r="5" fill="#A29BFE" opacity="0.8"/>
  <circle cx="70" cy="40" r="5" fill="#A29BFE" opacity="0.8"/>
  <circle cx="40" cy="60" r="5" fill="#74B9FF" opacity="0.8"/>
  <circle cx="60" cy="60" r="5" fill="#74B9FF" opacity="0.8"/>
  <circle cx="50" cy="80" r="5" fill="#FFD93D" opacity="0.8"/>
  <line x1="20" y1="20" x2="30" y2="40" stroke="#A29BFE" stroke-width="1" opacity="0.6"/>
  <line x1="20" y1="20" x2="50" y2="40" stroke="#A29BFE" stroke-width="1" opacity="0.6"/>
  <line x1="40" y1="20" x2="30" y2="40" stroke="#A29BFE" stroke-width="1" opacity="0.6"/>
  <line x1="40" y1="20" x2="50" y2="40" stroke="#A29BFE" stroke-width="1" opacity="0.6"/>
  <line x1="40" y1="20" x2="70" y2="40" stroke="#A29BFE" stroke-width="1" opacity="0.6"/>
  <line x1="60" y1="20" x2="50" y2="40" stroke="#A29BFE" stroke-width="1" opacity="0.6"/>
  <line x1="60" y1="20" x2="70" y2="40" stroke="#A29BFE" stroke-width="1" opacity="0.6"/>
  <line x1="80" y1="20" x2="70" y2="40" stroke="#A29BFE" stroke-width="1" opacity="0.6"/>
  <line x1="30" y1="40" x2="40" y2="60" stroke="#74B9FF" stroke-width="1" opacity="0.6"/>
  <line x1="30" y1="40" x2="60" y2="60" stroke="#74B9FF" stroke-width="1" opacity="0.6"/>
  <line x1="50" y1="40" x2="40" y2="60" stroke="#74B9FF" stroke-width="1" opacity="0.6"/>
  <line x1="50" y1="40" x2="60" y2="60" stroke="#74B9FF" stroke-width="1" opacity="0.6"/>
  <line x1="70" y1="40" x2="60" y2="60" stroke="#74B9FF" stroke-width="1" opacity="0.6"/>
  <line x1="40" y1="60" x2="50" y2="80" stroke="#FFD93D" stroke-width="1" opacity="0.6"/>
  <line x1="60" y1="60" x2="50" y2="80" stroke="#FFD93D" stroke-width="1" opacity="0.6"/>
</svg>

