<svg width="100" height="100" viewBox="0 0 100 100" xmlns="http://www.w3.org/2000/svg">
  <path d="M20,20 Q20,15 25,20 Q30,25 25,30 Q20,35 15,30 Q10,25 15,20 Q20,20 20,20 Z" fill="#74B9FF" opacity="0.8"/>
  <path d="M50,20 Q50,15 55,20 Q60,25 55,30 Q50,35 45,30 Q40,25 45,20 Q50,20 50,20 Z" fill="#A29BFE" opacity="0.8"/>
  <path d="M80,20 Q80,15 85,20 Q90,25 85,30 Q80,35 75,30 Q70,25 75,20 Q80,20 80,20 Z" fill="#6C5CE7" opacity="0.8"/>
  <path d="M35,50 Q35,45 40,50 Q45,55 40,60 Q35,65 30,60 Q25,55 30,50 Q35,50 35,50 Z" fill="#74B9FF" opacity="0.8"/>
  <path d="M65,50 Q65,45 70,50 Q75,55 70,60 Q65,65 60,60 Q55,55 60,50 Q65,50 65,50 Z" fill="#A29BFE" opacity="0.8"/>
</svg>
