<svg width="100" height="100" viewBox="0 0 100 100" xmlns="http://www.w3.org/2000/svg">
  <rect x="40" y="20" width="20" height="10" fill="#636E72" opacity="0.8"/>
  <rect x="35" y="30" width="30" height="8" fill="#636E72" opacity="0.8"/>
  <rect x="30" y="38" width="40" height="8" fill="#636E72" opacity="0.8"/>
  <rect x="25" y="46" width="50" height="8" fill="#636E72" opacity="0.8"/>
  <rect x="20" y="54" width="60" height="8" fill="#636E72" opacity="0.8"/>
  <rect x="15" y="62" width="70" height="8" fill="#636E72" opacity="0.8"/>
  <rect x="10" y="70" width="80" height="8" fill="#636E72" opacity="0.8"/>
  <rect x="5" y="78" width="90" height="8" fill="#636E72" opacity="0.8"/>
  <rect x="0" y="86" width="100" height="8" fill="#636E72" opacity="0.8"/>
  <rect x="45" y="25" width="10" height="5" fill="#6C5CE7" opacity="0.8"/>
  <rect x="40" y="35" width="20" height="3" fill="#6C5CE7" opacity="0.8"/>
  <rect x="35" y="43" width="30" height="3" fill="#6C5CE7" opacity="0.8"/>
  <rect x="30" y="51" width="40" height="3" fill="#6C5CE7" opacity="0.8"/>
  <rect x="25" y="59" width="50" height="3" fill="#6C5CE7" opacity="0.8"/>
  <rect x="20" y="67" width="60" height="3" fill="#6C5CE7" opacity="0.8"/>
  <rect x="15" y="75" width="70" height="3" fill="#6C5CE7" opacity="0.8"/>
  <rect x="10" y="83" width="80" height="3" fill="#6C5CE7" opacity="0.8"/>
  <rect x="5" y="91" width="90" height="3" fill="#6C5CE7" opacity="0.8"/>
  <circle cx="50" cy="30" r="2" fill="#FFD93D" opacity="0.9"/>
  <circle cx="50" cy="38" r="2" fill="#FFD93D" opacity="0.9"/>
  <circle cx="50" cy="46" r="2" fill="#FFD93D" opacity="0.9"/>
  <circle cx="50" cy="54" r="2" fill="#FFD93D" opacity="0.9"/>
  <circle cx="50" cy="62" r="2" fill="#FFD93D" opacity="0.9"/>
  <circle cx="50" cy="70" r="2" fill="#FFD93D" opacity="0.9"/>
  <circle cx="50" cy="78" r="2" fill="#FFD93D" opacity="0.9"/>
  <circle cx="50" cy="86" r="2" fill="#FFD93D" opacity="0.9"/>
</svg>

