<svg width="100" height="100" viewBox="0 0 100 100" xmlns="http://www.w3.org/2000/svg">
  <rect x="30" y="20" width="40" height="50" rx="5" fill="#636E72" opacity="0.8"/>
  <rect x="35" y="25" width="30" height="40" rx="3" fill="#2D3436" opacity="0.9"/>
  <rect x="40" y="30" width="20" height="30" rx="2" fill="#6C5CE7" opacity="0.8"/>
  <rect x="45" y="35" width="10" height="20" rx="1" fill="#A29BFE" opacity="0.7"/>
  <rect x="47" y="37" width="6" height="16" rx="1" fill="#74B9FF" opacity="0.6"/>
  <rect x="48" y="38" width="4" height="14" rx="1" fill="#FFD93D" opacity="0.9"/>
  <rect x="49" y="39" width="2" height="12" rx="1" fill="#FFE66D" opacity="0.8"/>
  <circle cx="50" cy="50" r="3" fill="#6C5CE7" opacity="0.8"/>
  <circle cx="50" cy="50" r="1" fill="#FFD93D" opacity="0.9"/>
  <rect x="35" y="75" width="30" height="5" fill="#636E72" opacity="0.8"/>
  <rect x="40" y="77" width="20" height="3" fill="#2D3436" opacity="0.9"/>
  <rect x="45" y="78" width="10" height="1" fill="#636E72" opacity="0.8"/>
  <rect x="35" y="15" width="30" height="5" fill="#636E72" opacity="0.8"/>
  <rect x="40" y="17" width="20" height="3" fill="#2D3436" opacity="0.9"/>
  <rect x="45" y="18" width="10" height="1" fill="#636E72" opacity="0.8"/>
  <rect x="35" y="85" width="30" height="5" fill="#636E72" opacity="0.8"/>
  <rect x="40" y="87" width="20" height="3" fill="#2D3436" opacity="0.9"/>
  <rect x="45" y="88" width="10" height="1" fill="#636E72" opacity="0.8"/>
  <rect x="35" y="90" width="30" height="5" fill="#636E72" opacity="0.8"/>
  <rect x="40" y="92" width="20" height="3" fill="#2D3436" opacity="0.9"/>
  <rect x="45" y="93" width="10" height="1" fill="#636E72" opacity="0.8"/>
</svg>

