<svg width="100" height="100" viewBox="0 0 100 100" xmlns="http://www.w3.org/2000/svg">
  <ellipse cx="30" cy="40" rx="15" ry="20" fill="#636E72" opacity="0.8"/>
  <ellipse cx="70" cy="40" rx="15" ry="20" fill="#636E72" opacity="0.8"/>
  <ellipse cx="30" cy="40" rx="10" ry="15" fill="#2D3436" opacity="0.9"/>
  <ellipse cx="70" cy="40" rx="10" ry="15" fill="#2D3436" opacity="0.9"/>
  <ellipse cx="30" cy="40" rx="5" ry="10" fill="#6C5CE7" opacity="0.8"/>
  <ellipse cx="70" cy="40" rx="5" ry="10" fill="#6C5CE7" opacity="0.8"/>
  <rect x="35" y="60" width="30" height="8" fill="#636E72" opacity="0.8"/>
  <rect x="40" y="68" width="20" height="5" fill="#2D3436" opacity="0.9"/>
  <circle cx="50" cy="70" r="2" fill="#FFD93D" opacity="0.9"/>
  <path d="M20,20 Q30,10 40,20 Q50,10 60,20 Q70,10 80,20" stroke="#A29BFE" stroke-width="2" fill="none" opacity="0.8"/>
  <path d="M20,60 Q30,70 40,60 Q50,70 60,60 Q70,70 80,60" stroke="#A29BFE" stroke-width="2" fill="none" opacity="0.8"/>
</svg>

