<svg xmlns="http://www.w3.org/2000/svg" viewBox="0 0 400 300">
  <defs>
    <radialGradient id="star-glow" cx="50%" cy="50%" r="50%">
      <stop offset="0%" style="stop-color:#FFFFFF;stop-opacity:1" />
      <stop offset="100%" style="stop-color:#FFD700;stop-opacity:0.3" />
    </radialGradient>
  </defs>
  
  <!-- Large star -->
  <g transform="translate(100, 80)">
    <polygon points="0,-30 8,-8 30,0 8,8 0,30 -8,8 -30,0 -8,-8" fill="#FFD700"/>
    <circle cx="0" cy="0" r="35" fill="url(#star-glow)" opacity="0.3"/>
  </g>
  
  <!-- Medium star -->
  <g transform="translate(250, 60)">
    <polygon points="0,-20 6,-6 20,0 6,6 0,20 -6,6 -20,0 -6,-6" fill="#FFA500"/>
    <circle cx="0" cy="0" r="25" fill="url(#star-glow)" opacity="0.2"/>
  </g>
  
  <!-- Small stars -->
  <g transform="translate(50, 200)">
    <polygon points="0,-12 4,-4 12,0 4,4 0,12 -4,4 -12,0 -4,-4" fill="#FFFFFF"/>
  </g>
  
  <g transform="translate(150, 180)">
    <polygon points="0,-10 3,-3 10,0 3,3 0,10 -3,3 -10,0 -3,-3" fill="#87CEEB"/>
  </g>
  
  <g transform="translate(300, 220)">
    <polygon points="0,-8 2,-3 8,0 2,3 0,8 -2,3 -8,0 -2,-3" fill="#FFB6C1"/>
  </g>
  
  <g transform="translate(200, 250)">
    <polygon points="0,-6 2,-2 6,0 2,2 0,6 -2,2 -6,0 -2,-2" fill="#98FB98"/>
  </g>
</svg>

