<svg width="100" height="100" viewBox="0 0 100 100" xmlns="http://www.w3.org/2000/svg">
  <path d="M30,20 Q30,10 40,20 Q50,30 40,40 Q30,50 20,40 Q10,30 20,20 Q30,20 30,20 Z" fill="#FF6B6B" opacity="0.8"/>
  <path d="M70,20 Q70,10 80,20 Q90,30 80,40 Q70,50 60,40 Q50,30 60,20 Q70,20 70,20 Z" fill="#4ECDC4" opacity="0.8"/>
  <path d="M30,60 Q30,50 40,60 Q50,70 40,80 Q30,90 20,80 Q10,70 20,60 Q30,60 30,60 Z" fill="#45B7D1" opacity="0.8"/>
  <path d="M70,60 Q70,50 80,60 Q90,70 80,80 Q70,90 60,80 Q50,70 60,60 Q70,60 70,60 Z" fill="#96CEB4" opacity="0.8"/>
</svg>
