<svg width="900" height="1350" viewBox="0 0 900 1350" xmlns="http://www.w3.org/2000/svg">
  <defs>
    <linearGradient id="natureGradient" x1="0%" y1="0%" x2="100%" y2="100%">
      <stop offset="0%" style="stop-color:#f0f9ff;stop-opacity:0.9" />
      <stop offset="50%" style="stop-color:#ecfdf5;stop-opacity:0.8" />
      <stop offset="100%" style="stop-color:#f0fdf4;stop-opacity:0.85" />
    </linearGradient>
    <filter id="natureShadow" x="-20%" y="-20%" width="140%" height="140%">
      <feDropShadow dx="0" dy="3" stdDeviation="6" flood-color="#000000" flood-opacity="0.15"/>
    </filter>
  </defs>
  
  <!-- Main nature frame -->
  <rect x="25" y="25" width="850" height="1300" rx="35" ry="35" 
        fill="url(#natureGradient)" 
        stroke="#16a34a" 
        stroke-width="3"
        filter="url(#natureShadow)"/>
  
  <!-- Nature corner decorations - leaves -->
  <g fill="#15803d" opacity="0.7">
    <!-- Top-left leaf -->
    <path d="M25,25 Q45,25 65,25 Q85,25 105,25 L105,45 Q85,45 65,45 Q45,45 25,45 Z"/>
    <ellipse cx="65" cy="35" rx="20" ry="10" fill="#16a34a" opacity="0.6"/>
    
    <!-- Top-right leaf -->
    <path d="M795,25 Q815,25 835,25 Q855,25 875,25 L875,45 Q855,45 835,45 Q815,45 795,45 Z"/>
    <ellipse cx="835" cy="35" rx="20" ry="10" fill="#16a34a" opacity="0.6"/>
    
    <!-- Bottom-left leaf -->
    <path d="M25,1255 Q45,1255 65,1255 Q85,1255 105,1255 L105,1275 Q85,1275 65,1275 Q45,1275 25,1275 Z"/>
    <ellipse cx="65" cy="1265" rx="20" ry="10" fill="#16a34a" opacity="0.6"/>
    
    <!-- Bottom-right leaf -->
    <path d="M795,1255 Q815,1255 835,1255 Q855,1255 875,1255 L875,1275 Q855,1275 835,1275 Q815,1275 795,1275 Z"/>
    <ellipse cx="835" cy="1265" rx="20" ry="10" fill="#16a34a" opacity="0.6"/>
  </g>
  
  <!-- Inner nature border -->
  <rect x="55" y="55" width="790" height="1240" rx="25" ry="25" 
        fill="none" 
        stroke="#22c55e" 
        stroke-width="2"/>
  
  <!-- Nature pattern overlay -->
  <defs>
    <pattern id="naturePattern" x="0" y="0" width="80" height="80" patternUnits="userSpaceOnUse">
      <!-- Small leaf shapes -->
      <path d="M40,20 Q50,30 40,40 Q30,30 40,20" fill="#16a34a" opacity="0.2"/>
      <path d="M20,40 Q30,50 20,60 Q10,50 20,40" fill="#15803d" opacity="0.15"/>
      <path d="M60,40 Q70,50 60,60 Q50,50 60,40" fill="#15803d" opacity="0.15"/>
    </pattern>
  </defs>
  
  <rect x="25" y="25" width="850" height="1300" rx="35" ry="35" 
        fill="url(#naturePattern)" 
        opacity="0.3"/>
</svg>
