<svg width="900" height="1350" viewBox="0 0 900 1350" xmlns="http://www.w3.org/2000/svg">
  <defs>
    <linearGradient id="playfulGradient" x1="0%" y1="0%" x2="100%" y2="100%">
      <stop offset="0%" style="stop-color:#fff5f5;stop-opacity:0.9" />
      <stop offset="50%" style="stop-color:#fef7f0;stop-opacity:0.8" />
      <stop offset="100%" style="stop-color:#f0f9ff;stop-opacity:0.85" />
    </linearGradient>
    <filter id="playfulShadow" x="-20%" y="-20%" width="140%" height="140%">
      <feDropShadow dx="0" dy="3" stdDeviation="5" flood-color="#000000" flood-opacity="0.12"/>
    </filter>
  </defs>
  
  <!-- Main playful frame -->
  <rect x="20" y="20" width="860" height="1310" rx="25" ry="25" 
        fill="url(#playfulGradient)" 
        stroke="#fbbf24" 
        stroke-width="3"
        filter="url(#playfulShadow)"/>
  
  <!-- Fun corner decorations -->
  <g fill="#f59e0b" opacity="0.7">
    <!-- Top-left star -->
    <path d="M40,40 L45,50 L55,50 L47,58 L52,68 L40,62 L28,68 L33,58 L25,50 L35,50 Z"/>
    
    <!-- Top-right star -->
    <path d="M860,40 L865,50 L875,50 L867,58 L872,68 L860,62 L848,68 L853,58 L845,50 L855,50 Z"/>
    
    <!-- Bottom-left star -->
    <path d="M40,1310 L45,1300 L55,1300 L47,1292 L52,1282 L40,1288 L28,1282 L33,1292 L25,1300 L35,1300 Z"/>
    
    <!-- Bottom-right star -->
    <path d="M860,1310 L865,1300 L875,1300 L867,1292 L872,1282 L860,1288 L848,1282 L853,1292 L845,1300 L855,1300 Z"/>
  </g>
  
  <!-- Playful border pattern -->
  <g fill="#fbbf24" opacity="0.5">
    <!-- Top border dots -->
    <circle cx="80" cy="40" r="4"/>
    <circle cx="180" cy="40" r="4"/>
    <circle cx="280" cy="40" r="4"/>
    <circle cx="380" cy="40" r="4"/>
    <circle cx="480" cy="40" r="4"/>
    <circle cx="580" cy="40" r="4"/>
    <circle cx="680" cy="40" r="4"/>
    <circle cx="780" cy="40" r="4"/>
    
    <!-- Bottom border dots -->
    <circle cx="80" cy="1310" r="4"/>
    <circle cx="180" cy="1310" r="4"/>
    <circle cx="280" cy="1310" r="4"/>
    <circle cx="380" cy="1310" r="4"/>
    <circle cx="480" cy="1310" r="4"/>
    <circle cx="580" cy="1310" r="4"/>
    <circle cx="680" cy="1310" r="4"/>
    <circle cx="780" cy="1310" r="4"/>
    
    <!-- Left border dots -->
    <circle cx="40" cy="120" r="4"/>
    <circle cx="40" cy="220" r="4"/>
    <circle cx="40" cy="320" r="4"/>
    <circle cx="40" cy="420" r="4"/>
    <circle cx="40" cy="520" r="4"/>
    <circle cx="40" cy="620" r="4"/>
    <circle cx="40" cy="720" r="4"/>
    <circle cx="40" cy="820" r="4"/>
    <circle cx="40" cy="920" r="4"/>
    <circle cx="40" cy="1020" r="4"/>
    <circle cx="40" cy="1120" r="4"/>
    <circle cx="40" cy="1220" r="4"/>
    
    <!-- Right border dots -->
    <circle cx="860" cy="120" r="4"/>
    <circle cx="860" cy="220" r="4"/>
    <circle cx="860" cy="320" r="4"/>
    <circle cx="860" cy="420" r="4"/>
    <circle cx="860" cy="520" r="4"/>
    <circle cx="860" cy="620" r="4"/>
    <circle cx="860" cy="720" r="4"/>
    <circle cx="860" cy="820" r="4"/>
    <circle cx="860" cy="920" r="4"/>
    <circle cx="860" cy="1020" r="4"/>
    <circle cx="860" cy="1120" r="4"/>
    <circle cx="860" cy="1220" r="4"/>
  </g>
  
  <!-- Inner border -->
  <rect x="50" y="50" width="800" height="1250" rx="15" ry="15" 
        fill="none" 
        stroke="#fcd34d" 
        stroke-width="2"/>
  
  <!-- Fun pattern overlay -->
  <defs>
    <pattern id="playfulPattern" x="0" y="0" width="80" height="80" patternUnits="userSpaceOnUse">
      <circle cx="40" cy="40" r="1" fill="#fbbf24" opacity="0.2"/>
      <circle cx="20" cy="20" r="0.8" fill="#f59e0b" opacity="0.15"/>
      <circle cx="60" cy="60" r="0.8" fill="#f59e0b" opacity="0.15"/>
    </pattern>
  </defs>
  
  <rect x="20" y="20" width="860" height="1310" rx="25" ry="25" 
        fill="url(#playfulPattern)" 
        opacity="0.3"/>
</svg>
