<svg width="900" height="1350" viewBox="0 0 900 1350" xmlns="http://www.w3.org/2000/svg">
  <defs>
    <linearGradient id="frameGradient" x1="0%" y1="0%" x2="100%" y2="100%">
      <stop offset="0%" style="stop-color:#ffffff;stop-opacity:0.9" />
      <stop offset="50%" style="stop-color:#f8f9fa;stop-opacity:0.7" />
      <stop offset="100%" style="stop-color:#e9ecef;stop-opacity:0.8" />
    </linearGradient>
    <filter id="frameShadow" x="-20%" y="-20%" width="140%" height="140%">
      <feDropShadow dx="0" dy="4" stdDeviation="8" flood-color="#000000" flood-opacity="0.15"/>
    </filter>
  </defs>
  
  <!-- Main frame border -->
  <rect x="20" y="20" width="860" height="1310" rx="15" ry="15" 
        fill="url(#frameGradient)" 
        stroke="#dee2e6" 
        stroke-width="2"
        filter="url(#frameShadow)"/>
  
  <!-- Inner decorative border -->
  <rect x="40" y="40" width="820" height="1270" rx="8" ry="8" 
        fill="none" 
        stroke="#ced4da" 
        stroke-width="1.5"/>
  
  <!-- Corner decorations -->
  <g fill="#6c757d" opacity="0.6">
    <!-- Top-left corner -->
    <circle cx="60" cy="60" r="3"/>
    <circle cx="75" cy="60" r="2"/>
    <circle cx="60" cy="75" r="2"/>
    
    <!-- Top-right corner -->
    <circle cx="840" cy="60" r="3"/>
    <circle cx="825" cy="60" r="2"/>
    <circle cx="840" cy="75" r="2"/>
    
    <!-- Bottom-left corner -->
    <circle cx="60" cy="1290" r="3"/>
    <circle cx="75" cy="1290" r="2"/>
    <circle cx="60" cy="1275" r="2"/>
    
    <!-- Bottom-right corner -->
    <circle cx="840" cy="1290" r="3"/>
    <circle cx="825" cy="1290" r="2"/>
    <circle cx="840" cy="1275" r="2"/>
  </g>
  
  <!-- Subtle pattern overlay -->
  <defs>
    <pattern id="framePattern" x="0" y="0" width="40" height="40" patternUnits="userSpaceOnUse">
      <circle cx="20" cy="20" r="0.5" fill="#dee2e6" opacity="0.3"/>
    </pattern>
  </defs>
  
  <rect x="20" y="20" width="860" height="1310" rx="15" ry="15" 
        fill="url(#framePattern)" 
        opacity="0.4"/>
</svg>
