<svg width="900" height="1350" viewBox="0 0 900 1350" xmlns="http://www.w3.org/2000/svg">
  <defs>
    <linearGradient id="vintageGradient" x1="0%" y1="0%" x2="100%" y2="100%">
      <stop offset="0%" style="stop-color:#f8f9fa;stop-opacity:0.95" />
      <stop offset="50%" style="stop-color:#e9ecef;stop-opacity:0.85" />
      <stop offset="100%" style="stop-color:#dee2e6;stop-opacity:0.9" />
    </linearGradient>
    <filter id="vintageShadow" x="-20%" y="-20%" width="140%" height="140%">
      <feDropShadow dx="0" dy="3" stdDeviation="6" flood-color="#000000" flood-opacity="0.2"/>
    </filter>
  </defs>
  
  <!-- Main vintage frame -->
  <rect x="25" y="25" width="850" height="1300" rx="20" ry="20" 
        fill="url(#vintageGradient)" 
        stroke="#6c757d" 
        stroke-width="3"
        filter="url(#vintageShadow)"/>
  
  <!-- Ornate corner decorations -->
  <g fill="#495057" opacity="0.7">
    <!-- Top-left ornate corner -->
    <path d="M25,25 Q45,25 65,25 Q85,25 105,25 L105,45 Q85,45 65,45 Q45,45 25,45 Z"/>
    <path d="M25,25 Q25,45 25,65 Q25,85 25,105 L45,105 Q45,85 45,65 Q45,45 45,25 Z"/>
    
    <!-- Top-right ornate corner -->
    <path d="M795,25 Q815,25 835,25 Q855,25 875,25 L875,45 Q855,45 835,45 Q815,45 795,45 Z"/>
    <path d="M875,25 Q875,45 875,65 Q875,85 875,105 L855,105 Q855,85 855,65 Q855,45 855,25 Z"/>
    
    <!-- Bottom-left ornate corner -->
    <path d="M25,1245 Q45,1245 65,1245 Q85,1245 105,1245 L105,1265 Q85,1265 65,1265 Q45,1265 25,1265 Z"/>
    <path d="M25,1245 Q25,1265 25,1285 Q25,1305 25,1325 L45,1325 Q45,1305 45,1285 Q45,1265 45,1245 Z"/>
    
    <!-- Bottom-right ornate corner -->
    <path d="M795,1245 Q815,1245 835,1245 Q855,1245 875,1245 L875,1265 Q855,1265 835,1265 Q815,1265 795,1265 Z"/>
    <path d="M875,1245 Q875,1265 875,1285 Q875,1305 875,1325 L855,1325 Q855,1305 855,1285 Q855,1265 855,1245 Z"/>
  </g>
  
  <!-- Inner decorative border with vintage pattern -->
  <rect x="50" y="50" width="800" height="1250" rx="12" ry="12" 
        fill="none" 
        stroke="#adb5bd" 
        stroke-width="2"/>
  
  <!-- Vintage corner flourishes -->
  <g fill="#868e96" opacity="0.5">
    <!-- Top-left flourish -->
    <path d="M50,50 Q70,50 90,50 L90,70 Q70,70 50,70 Z"/>
    <path d="M50,50 Q50,70 50,90 L70,90 Q70,70 70,50 Z"/>
    
    <!-- Top-right flourish -->
    <path d="M810,50 Q830,50 850,50 L850,70 Q830,70 810,70 Z"/>
    <path d="M850,50 Q850,70 850,90 L830,90 Q830,70 830,50 Z"/>
    
    <!-- Bottom-left flourish -->
    <path d="M50,1260 Q70,1260 90,1260 L90,1280 Q70,1280 50,1280 Z"/>
    <path d="M50,1260 Q50,1280 50,1300 L70,1300 Q70,1280 70,1260 Z"/>
    
    <!-- Bottom-right flourish -->
    <path d="M810,1260 Q830,1260 850,1260 L850,1280 Q830,1280 810,1280 Z"/>
    <path d="M850,1260 Q850,1280 850,1300 L830,1300 Q830,1280 830,1260 Z"/>
  </g>
  
  <!-- Subtle vintage texture -->
  <defs>
    <pattern id="vintagePattern" x="0" y="0" width="60" height="60" patternUnits="userSpaceOnUse">
      <circle cx="30" cy="30" r="0.8" fill="#6c757d" opacity="0.2"/>
      <circle cx="15" cy="15" r="0.4" fill="#495057" opacity="0.15"/>
      <circle cx="45" cy="45" r="0.4" fill="#495057" opacity="0.15"/>
    </pattern>
  </defs>
  
  <rect x="25" y="25" width="850" height="1300" rx="20" ry="20" 
        fill="url(#vintagePattern)" 
        opacity="0.3"/>
</svg>
