<svg xmlns="http://www.w3.org/2000/svg" viewBox="0 0 900 1350">
  <defs>
    <linearGradient id="abstract2-1" x1="0%" y1="0%" x2="100%" y2="100%">
      <stop offset="0%" stop-color="#667eea" stop-opacity="0.2"/>
      <stop offset="100%" stop-color="#764ba2" stop-opacity="0.08"/>
    </linearGradient>
    <linearGradient id="abstract2-2" x1="100%" y1="0%" x2="0%" y2="100%">
      <stop offset="0%" stop-color="#f093fb" stop-opacity="0.15"/>
      <stop offset="100%" stop-color="#f5576c" stop-opacity="0.06"/>
    </linearGradient>
  </defs>
  
  <rect width="900" height="1350" fill="url(#abstract2-1)"/>
  <rect width="900" height="1350" fill="url(#abstract2-2)"/>
  
  <!-- Abstract curves -->
  <g opacity="0.12">
    <!-- S-curves -->
    <path d="M50,100 Q150,50 250,100 Q350,150 450,100 Q550,50 650,100 Q750,150 850,100" fill="none" stroke="#667eea" stroke-width="4"/>
    <path d="M50,300 Q150,250 250,300 Q350,350 450,300 Q550,250 650,300 Q750,350 850,300" fill="none" stroke="#f093fb" stroke-width="3"/>
    <path d="M50,500 Q150,450 250,500 Q350,550 450,500 Q550,450 650,500 Q750,550 850,500" fill="none" stroke="#764ba2" stroke-width="4"/>
    
    <!-- Spiral-like elements -->
    <path d="M200,200 Q250,150 300,200 Q350,250 400,200 Q450,150 500,200 Q550,250 600,200" fill="none" stroke="#f5576c" stroke-width="2"/>
    <path d="M300,600 Q350,550 400,600 Q450,650 500,600 Q550,550 600,600 Q650,650 700,600" fill="none" stroke="#667eea" stroke-width="2"/>
    <path d="M100,800 Q150,750 200,800 Q250,850 300,800 Q350,750 400,800 Q450,850 500,800" fill="none" stroke="#f093fb" stroke-width="2"/>
  </g>
  
  <!-- Geometric overlays -->
  <g opacity="0.08">
    <!-- Overlapping circles -->
    <circle cx="300" cy="300" r="80" fill="#667eea"/>
    <circle cx="400" cy="300" r="60" fill="#f093fb"/>
    <circle cx="350" cy="400" r="70" fill="#764ba2"/>
    
    <circle cx="600" cy="600" r="75" fill="#f5576c"/>
    <circle cx="700" cy="600" r="55" fill="#667eea"/>
    <circle cx="650" cy="700" r="65" fill="#f093fb"/>
    
    <circle cx="200" cy="800" r="70" fill="#764ba2"/>
    <circle cx="300" cy="800" r="50" fill="#f5576c"/>
    <circle cx="250" cy="900" r="60" fill="#667eea"/>
  </g>
  
  <!-- Abstract shapes -->
  <g opacity="0.15">
    <!-- Organic blobs -->
    <ellipse cx="500" cy="200" rx="100" ry="60" fill="#f093fb"/>
    <ellipse cx="200" cy="500" rx="80" ry="100" fill="#667eea"/>
    <ellipse cx="700" cy="800" rx="90" ry="70" fill="#764ba2"/>
    <ellipse cx="400" cy="1000" rx="70" ry="90" fill="#f5576c"/>
    
    <!-- Angular shapes -->
    <polygon points="600,150 650,100 700,150 650,200" fill="#667eea"/>
    <polygon points="150,650 200,600 250,650 200,700" fill="#f093fb"/>
    <polygon points="750,950 800,900 850,950 800,1000" fill="#764ba2"/>
  </g>
  
  <!-- Floating elements -->
  <g opacity="0.2">
    <!-- Small circles -->
    <circle cx="180" cy="180" r="8" fill="#f093fb"/>
    <circle cx="720" cy="280" r="6" fill="#667eea"/>
    <circle cx="420" cy="480" r="10" fill="#764ba2"/>
    <circle cx="780" cy="580" r="7" fill="#f5576c"/>
    <circle cx="320" cy="780" r="9" fill="#f093fb"/>
    <circle cx="680" cy="880" r="5" fill="#667eea"/>
    <circle cx="220" cy="1080" r="8" fill="#764ba2"/>
    <circle cx="760" cy="1180" r="6" fill="#f5576c"/>
  </g>
  
  <!-- Abstract lines -->
  <g stroke="#667eea" stroke-width="1" opacity="0.1" fill="none">
    <!-- Diagonal lines -->
    <line x1="0" y1="0" x2="900" y2="1350"/>
    <line x1="900" y1="0" x2="0" y2="1350"/>
    <line x1="0" y1="675" x2="900" y2="675"/>
    <line x1="450" y1="0" x2="450" y2="1350"/>
    
    <!-- Radial lines -->
    <line x1="450" y1="675" x2="0" y2="0"/>
    <line x1="450" y1="675" x2="900" y2="0"/>
    <line x1="450" y1="675" x2="0" y2="1350"/>
    <line x1="450" y1="675" x2="900" y2="1350"/>
  </g>
</svg>
