<svg xmlns="http://www.w3.org/2000/svg" viewBox="0 0 900 1350">
  <defs>
    <linearGradient id="abs7-bg" x1="0%" y1="0%" x2="100%" y2="100%">
      <stop offset="0%" stop-color="#fefefe"/>
      <stop offset="100%" stop-color="#f8f9fa"/>
    </linearGradient>
    <radialGradient id="dot1" cx="50%" cy="50%" r="50%">
      <stop offset="0%" stop-color="#3b82f6" stop-opacity="0.4"/>
      <stop offset="100%" stop-color="#3b82f6" stop-opacity="0"/>
    </radialGradient>
    <radialGradient id="dot2" cx="50%" cy="50%" r="50%">
      <stop offset="0%" stop-color="#10b981" stop-opacity="0.3"/>
      <stop offset="100%" stop-color="#10b981" stop-opacity="0"/>
    </radialGradient>
    <radialGradient id="dot3" cx="50%" cy="50%" r="50%">
      <stop offset="0%" stop-color="#f59e0b" stop-opacity="0.25"/>
      <stop offset="100%" stop-color="#f59e0b" stop-opacity="0"/>
    </radialGradient>
    <radialGradient id="dot4" cx="50%" cy="50%" r="50%">
      <stop offset="0%" stop-color="#8b5cf6" stop-opacity="0.2"/>
      <stop offset="100%" stop-color="#8b5cf6" stop-opacity="0"/>
    </radialGradient>
  </defs>
  
  <!-- Background -->
  <rect width="900" height="1350" fill="url(#abs7-bg)"/>
  
  <!-- Dot matrix pattern -->
  <g>
    <!-- Row 1 -->
    <circle cx="100" cy="100" r="15" fill="url(#dot1)"/>
    <circle cx="300" cy="100" r="12" fill="url(#dot2)"/>
    <circle cx="500" cy="100" r="18" fill="url(#dot3)"/>
    <circle cx="700" cy="100" r="14" fill="url(#dot4)"/>
    
    <!-- Row 2 -->
    <circle cx="200" cy="200" r="16" fill="url(#dot2)"/>
    <circle cx="400" cy="200" r="13" fill="url(#dot3)"/>
    <circle cx="600" cy="200" r="17" fill="url(#dot1)"/>
    <circle cx="800" cy="200" r="11" fill="url(#dot4)"/>
    
    <!-- Row 3 -->
    <circle cx="150" cy="300" r="14" fill="url(#dot3)"/>
    <circle cx="350" cy="300" r="19" fill="url(#dot1)"/>
    <circle cx="550" cy="300" r="12" fill="url(#dot2)"/>
    <circle cx="750" cy="300" r="15" fill="url(#dot4)"/>
    
    <!-- Row 4 -->
    <circle cx="250" cy="400" r="17" fill="url(#dot4)"/>
    <circle cx="450" cy="400" r="13" fill="url(#dot2)"/>
    <circle cx="650" cy="400" r="16" fill="url(#dot3)"/>
    <circle cx="850" cy="400" r="14" fill="url(#dot1)"/>
    
    <!-- Row 5 -->
    <circle cx="100" cy="500" r="15" fill="url(#dot1)"/>
    <circle cx="300" cy="500" r="18" fill="url(#dot3)"/>
    <circle cx="500" cy="500" r="12" fill="url(#dot4)"/>
    <circle cx="700" cy="500" r="16" fill="url(#dot2)"/>
    
    <!-- Row 6 -->
    <circle cx="200" cy="600" r="13" fill="url(#dot2)"/>
    <circle cx="400" cy="600" r="17" fill="url(#dot1)"/>
    <circle cx="600" cy="600" r="14" fill="url(#dot3)"/>
    <circle cx="800" cy="600" r="19" fill="url(#dot4)"/>
    
    <!-- Row 7 -->
    <circle cx="150" cy="700" r="16" fill="url(#dot3)"/>
    <circle cx="350" cy="700" r="12" fill="url(#dot4)"/>
    <circle cx="550" cy="700" r="18" fill="url(#dot2)"/>
    <circle cx="750" cy="700" r="13" fill="url(#dot1)"/>
    
    <!-- Row 8 -->
    <circle cx="250" cy="800" r="14" fill="url(#dot4)"/>
    <circle cx="450" cy="800" r="17" fill="url(#dot3)"/>
    <circle cx="650" cy="800" r="11" fill="url(#dot1)"/>
    <circle cx="850" cy="800" r="15" fill="url(#dot2)"/>
    
    <!-- Row 9 -->
    <circle cx="100" cy="900" r="18" fill="url(#dot1)"/>
    <circle cx="300" cy="900" r="13" fill="url(#dot2)"/>
    <circle cx="500" cy="900" r="16" fill="url(#dot4)"/>
    <circle cx="700" cy="900" r="14" fill="url(#dot3)"/>
    
    <!-- Row 10 -->
    <circle cx="200" cy="1000" r="15" fill="url(#dot2)"/>
    <circle cx="400" cy="1000" r="19" fill="url(#dot1)"/>
    <circle cx="600" cy="1000" r="12" fill="url(#dot3)"/>
    <circle cx="800" cy="1000" r="17" fill="url(#dot4)"/>
    
    <!-- Row 11 -->
    <circle cx="150" cy="1100" r="14" fill="url(#dot3)"/>
    <circle cx="350" cy="1100" r="16" fill="url(#dot4)"/>
    <circle cx="550" cy="1100" r="13" fill="url(#dot2)"/>
    <circle cx="750" cy="1100" r="18" fill="url(#dot1)"/>
    
    <!-- Row 12 -->
    <circle cx="250" cy="1200" r="17" fill="url(#dot4)"/>
    <circle cx="450" cy="1200" r="12" fill="url(#dot3)"/>
    <circle cx="650" cy="1200" r="15" fill="url(#dot1)"/>
    <circle cx="850" cy="1200" r="14" fill="url(#dot2)"/>
    
    <!-- Row 13 -->
    <circle cx="100" cy="1300" r="16" fill="url(#dot1)"/>
    <circle cx="300" cy="1300" r="13" fill="url(#dot2)"/>
    <circle cx="500" cy="1300" r="18" fill="url(#dot4)"/>
    <circle cx="700" cy="1300" r="15" fill="url(#dot3)"/>
  </g>
  
  <!-- Subtle connecting lines -->
  <g stroke="#e2e8f0" stroke-width="0.3" opacity="0.2">
    <line x1="100" y1="100" x2="300" y2="100"/>
    <line x1="300" y1="100" x2="500" y2="100"/>
    <line x1="500" y1="100" x2="700" y2="100"/>
    
    <line x1="200" y1="200" x2="400" y2="200"/>
    <line x1="400" y1="200" x2="600" y2="200"/>
    <line x1="600" y1="200" x2="800" y2="200"/>
    
    <line x1="150" y1="300" x2="350" y2="300"/>
    <line x1="350" y1="300" x2="550" y2="300"/>
    <line x1="550" y1="300" x2="750" y2="300"/>
    
    <line x1="250" y1="400" x2="450" y2="400"/>
    <line x1="450" y1="400" x2="650" y2="400"/>
    <line x1="650" y1="400" x2="850" y2="400"/>
  </g>
</svg>
