<svg xmlns="http://www.w3.org/2000/svg" viewBox="0 0 900 1350">
  <defs>
    <radialGradient id="art1" cx="30%" cy="40%" r="60%">
      <stop offset="0%" stop-color="#ff9a9e" stop-opacity="0.2"/>
      <stop offset="100%" stop-color="#fecfef" stop-opacity="0.05"/>
    </radialGradient>
    <radialGradient id="art2" cx="70%" cy="60%" r="50%">
      <stop offset="0%" stop-color="#a8edea" stop-opacity="0.18"/>
      <stop offset="100%" stop-color="#fed6e3" stop-opacity="0.06"/>
    </radialGradient>
  </defs>
  
  <rect width="900" height="1350" fill="url(#art1)"/>
  <rect width="900" height="1350" fill="url(#art2)"/>
  
  <!-- Artistic brush strokes -->
  <g opacity="0.12">
    <!-- Bold strokes -->
    <path d="M50,100 Q150,50 250,100 T450,80 Q550,100 650,120 T850,100" fill="none" stroke="#ff6b6b" stroke-width="12" stroke-linecap="round"/>
    <path d="M100,300 Q200,250 300,300 T500,280 Q600,300 700,320 T900,300" fill="none" stroke="#4ecdc4" stroke-width="10" stroke-linecap="round"/>
    <path d="M150,500 Q250,450 350,500 T550,480 Q650,500 750,520 T950,500" fill="none" stroke="#f39c12" stroke-width="11" stroke-linecap="round"/>
    
    <!-- Curved strokes -->
    <path d="M200,700 Q300,650 400,700 T600,680 Q700,700 800,720" fill="none" stroke="#9b59b6" stroke-width="9" stroke-linecap="round"/>
    <path d="M250,900 Q350,850 450,900 T650,880 Q750,900 850,920" fill="none" stroke="#e74c3c" stroke-width="8" stroke-linecap="round"/>
    <path d="M300,1100 Q400,1050 500,1100 T700,1080 Q800,1100 900,1120" fill="none" stroke="#3498db" stroke-width="10" stroke-linecap="round"/>
  </g>
  
  <!-- Paint splatters -->
  <g opacity="0.15">
    <ellipse cx="180" cy="200" rx="45" ry="35" fill="#ff6b6b"/>
    <ellipse cx="720" cy="350" rx="40" ry="50" fill="#4ecdc4"/>
    <ellipse cx="420" cy="600" rx="55" ry="30" fill="#f39c12"/>
    <ellipse cx="780" cy="750" rx="35" ry="45" fill="#9b59b6"/>
    <ellipse cx="320" cy="900" rx="50" ry="40" fill="#e74c3c"/>
    <ellipse cx="680" cy="1050" rx="42" ry="38" fill="#3498db"/>
  </g>
  
  <!-- Palette knife effects -->
  <g opacity="0.1">
    <rect x="150" y="250" width="120" height="8" transform="rotate(15 210 254)" fill="#ff6b6b"/>
    <rect x="550" y="400" width="100" height="6" transform="rotate(-20 600 403)" fill="#4ecdc4"/>
    <rect x="250" y="650" width="110" height="7" transform="rotate(25 305 653.5)" fill="#f39c12"/>
    <rect x="650" y="800" width="95" height="5" transform="rotate(-15 697.5 802.5)" fill="#9b59b6"/>
    <rect x="350" y="1000" width="105" height="6" transform="rotate(30 402.5 1003)" fill="#e74c3c"/>
    <rect x="750" y="1150" width="90" height="7" transform="rotate(-25 795 1153.5)" fill="#3498db"/>
  </g>
  
  <!-- Color washes -->
  <g opacity="0.08">
    <circle cx="400" cy="400" r="150" fill="#ff9a9e"/>
    <circle cx="600" cy="600" r="120" fill="#a8edea"/>
    <circle cx="300" cy="800" r="130" fill="#ffecd2"/>
    <circle cx="700" cy="1000" r="110" fill="#fed6e3"/>
  </g>
</svg>
