<svg xmlns="http://www.w3.org/2000/svg" viewBox="0 0 900 1350">
  <defs>
    <linearGradient id="aurora-bg" x1="0%" y1="0%" x2="0%" y2="100%">
      <stop offset="0%" stop-color="#0f1419"/>
      <stop offset="30%" stop-color="#1a2332"/>
      <stop offset="70%" stop-color="#0f1419"/>
      <stop offset="100%" stop-color="#0a0f14"/>
    </linearGradient>
    <linearGradient id="aurora1" x1="0%" y1="0%" x2="100%" y2="0%">
      <stop offset="0%" stop-color="#00ff88" stop-opacity="0"/>
      <stop offset="25%" stop-color="#00ff88" stop-opacity="0.8"/>
      <stop offset="75%" stop-color="#00ff88" stop-opacity="0.8"/>
      <stop offset="100%" stop-color="#00ff88" stop-opacity="0"/>
    </linearGradient>
    <linearGradient id="aurora2" x1="0%" y1="0%" x2="100%" y2="0%">
      <stop offset="0%" stop-color="#0088ff" stop-opacity="0"/>
      <stop offset="30%" stop-color="#0088ff" stop-opacity="0.7"/>
      <stop offset="70%" stop-color="#0088ff" stop-opacity="0.7"/>
      <stop offset="100%" stop-color="#0088ff" stop-opacity="0"/>
    </linearGradient>
    <linearGradient id="aurora3" x1="0%" y1="0%" x2="100%" y2="0%">
      <stop offset="0%" stop-color="#ff0088" stop-opacity="0"/>
      <stop offset="20%" stop-color="#ff0088" stop-opacity="0.6"/>
      <stop offset="80%" stop-color="#ff0088" stop-opacity="0.6"/>
      <stop offset="100%" stop-color="#ff0088" stop-opacity="0"/>
    </linearGradient>
    <filter id="aurora-blur">
      <feGaussianBlur stdDeviation="15"/>
    </filter>
  </defs>
  
  <!-- Background -->
  <rect width="900" height="1350" fill="url(#aurora-bg)"/>
  
  <!-- Aurora light bands -->
  <g filter="url(#aurora-blur)">
    <!-- Green aurora -->
    <path d="M0,200 Q150,150 300,200 T600,180 T900,200 L900,400 Q600,380 300,400 T0,380 Z" fill="url(#aurora1)" opacity="0.8"/>
    
    <!-- Blue aurora -->
    <path d="M0,500 Q200,480 400,500 T700,480 T900,500 L900,700 Q700,680 400,700 T0,680 Z" fill="url(#aurora2)" opacity="0.7"/>
    
    <!-- Pink aurora -->
    <path d="M0,800 Q250,780 450,800 T750,780 T900,800 L900,1000 Q750,980 450,1000 T0,980 Z" fill="url(#aurora3)" opacity="0.6"/>
  </g>
  
  <!-- Stars -->
  <g fill="#ffffff" opacity="0.8">
    <circle cx="100" cy="150" r="1"/>
    <circle cx="300" cy="120" r="1.2"/>
    <circle cx="500" cy="180" r="0.8"/>
    <circle cx="700" cy="140" r="1.1"/>
    <circle cx="800" cy="200" r="0.9"/>
    
    <circle cx="150" cy="600" r="1.3"/>
    <circle cx="350" cy="580" r="0.7"/>
    <circle cx="550" cy="620" r="1"/>
    <circle cx="750" cy="590" r="1.2"/>
    <circle cx="850" cy="610" r="0.8"/>
    
    <circle cx="200" cy="1000" r="0.9"/>
    <circle cx="400" cy="980" r="1.1"/>
    <circle cx="600" cy="1020" r="0.8"/>
    <circle cx="800" cy="990" r="1.3"/>
    <circle cx="900" cy="1010" r="0.7"/>
  </g>
  
  <!-- Subtle light rays -->
  <g stroke="#ffffff" stroke-width="0.5" opacity="0.1">
    <line x1="0" y1="0" x2="900" y2="1350"/>
    <line x1="900" y1="0" x2="0" y2="1350"/>
    <line x1="450" y1="0" x2="450" y2="1350"/>
  </g>
</svg>
