<svg xmlns="http://www.w3.org/2000/svg" viewBox="0 0 900 1350">
  <defs>
    <linearGradient id="sky" x1="0%" y1="0%" x2="0%" y2="100%">
      <stop offset="0%" style="stop-color:#87CEEB;stop-opacity:1" />
      <stop offset="100%" style="stop-color:#E0F6FF;stop-opacity:1" />
    </linearGradient>
    <linearGradient id="ocean" x1="0%" y1="0%" x2="0%" y2="100%">
      <stop offset="0%" style="stop-color:#4682B4;stop-opacity:1" />
      <stop offset="100%" style="stop-color:#87CEEB;stop-opacity:1" />
    </linearGradient>
    <linearGradient id="sand" x1="0%" y1="0%" x2="0%" y2="100%">
      <stop offset="0%" style="stop-color:#F4A460;stop-opacity:1" />
      <stop offset="100%" style="stop-color:#DEB887;stop-opacity:1" />
    </linearGradient>
  </defs>
  
  <!-- Sky -->
  <rect width="900" height="600" fill="url(#sky)"/>
  
  <!-- Ocean -->
  <rect x="0" y="600" width="900" height="400" fill="url(#ocean)"/>
  
  <!-- Sand -->
  <rect x="0" y="1000" width="900" height="350" fill="url(#sand)"/>
  
  <!-- Sun -->
  <circle cx="750" cy="150" r="80" fill="#FFD700" opacity="0.9"/>
  
  <!-- Clouds -->
  <g fill="#FFFFFF" opacity="0.8">
    <ellipse cx="200" cy="120" rx="60" ry="30"/>
    <ellipse cx="280" cy="100" rx="50" ry="25"/>
    <ellipse cx="400" cy="140" rx="70" ry="35"/>
  </g>
  
  <!-- Waves -->
  <g fill="#4682B4" opacity="0.6">
    <path d="M0 700 Q 150 680 300 700 T 600 700 T 900 700 V750 H0Z"/>
    <path d="M0 750 Q 150 730 300 750 T 600 750 T 900 750 V800 H0Z"/>
  </g>
</svg>

