<svg xmlns="http://www.w3.org/2000/svg" viewBox="0 0 900 1350">
  <defs>
    <radialGradient id="cosmic-bg" cx="50%" cy="30%" r="70%">
      <stop offset="0%" stop-color="#0a0a2a"/>
      <stop offset="40%" stop-color="#1a1a4a"/>
      <stop offset="70%" stop-color="#2a2a6a"/>
      <stop offset="100%" stop-color="#0a0a2a"/>
    </radialGradient>
    <radialGradient id="nebula1" cx="20%" cy="20%" r="60%">
      <stop offset="0%" stop-color="#ff6b9d" stop-opacity="0.8"/>
      <stop offset="100%" stop-color="#ff6b9d" stop-opacity="0"/>
    </radialGradient>
    <radialGradient id="nebula2" cx="80%" cy="60%" r="50%">
      <stop offset="0%" stop-color="#4ecdc4" stop-opacity="0.6"/>
      <stop offset="100%" stop-color="#4ecdc4" stop-opacity="0"/>
    </radialGradient>
    <radialGradient id="nebula3" cx="50%" cy="80%" r="40%">
      <stop offset="0%" stop-color="#ffe66d" stop-opacity="0.5"/>
      <stop offset="100%" stop-color="#ffe66d" stop-opacity="0"/>
    </radialGradient>
  </defs>
  
  <!-- Background -->
  <rect width="900" height="1350" fill="url(#cosmic-bg)"/>
  
  <!-- Nebula clouds -->
  <circle cx="180" cy="270" r="200" fill="url(#nebula1)"/>
  <circle cx="720" cy="810" r="150" fill="url(#nebula2)"/>
  <circle cx="450" cy="1080" r="180" fill="url(#nebula3)"/>
  
  <!-- Star clusters -->
  <g fill="#ffffff" opacity="0.9">
    <!-- Cluster 1 -->
    <circle cx="120" cy="180" r="1.5"/>
    <circle cx="140" cy="200" r="1"/>
    <circle cx="160" cy="160" r="1.2"/>
    <circle cx="180" cy="190" r="0.8"/>
    <circle cx="200" cy="170" r="1.1"/>
    
    <!-- Cluster 2 -->
    <circle cx="700" cy="300" r="1.3"/>
    <circle cx="720" cy="320" r="0.9"/>
    <circle cx="740" cy="280" r="1.4"/>
    <circle cx="760" cy="310" r="0.7"/>
    <circle cx="780" cy="290" r="1.2"/>
    
    <!-- Cluster 3 -->
    <circle cx="150" cy="600" r="1.1"/>
    <circle cx="170" cy="620" r="0.8"/>
    <circle cx="190" cy="580" r="1.3"/>
    <circle cx="210" cy="610" r="0.9"/>
    <circle cx="230" cy="590" r="1.0"/>
    
    <!-- Cluster 4 -->
    <circle cx="650" cy="900" r="1.2"/>
    <circle cx="670" cy="920" r="0.8"/>
    <circle cx="690" cy="880" r="1.4"/>
    <circle cx="710" cy="910" r="0.7"/>
    <circle cx="730" cy="890" r="1.1"/>
    
    <!-- Cluster 5 -->
    <circle cx="300" cy="1200" r="1.0"/>
    <circle cx="320" cy="1220" r="0.9"/>
    <circle cx="340" cy="1180" r="1.3"/>
    <circle cx="360" cy="1210" r="0.8"/>
    <circle cx="380" cy="1190" r="1.2"/>
  </g>
  
  <!-- Shooting stars -->
  <g stroke="#ffffff" stroke-width="2" opacity="0.7">
    <line x1="800" y1="100" x2="850" y2="150"/>
    <line x1="100" y1="400" x2="150" y2="450"/>
    <line x1="750" y1="700" x2="800" y2="750"/>
  </g>
</svg>
