<svg xmlns="http://www.w3.org/2000/svg" viewBox="0 0 900 1350">
  <defs>
    <linearGradient id="elegant1" x1="0%" y1="0%" x2="100%" y2="100%">
      <stop offset="0%" stop-color="#f8f9fa" stop-opacity="0.3"/>
      <stop offset="100%" stop-color="#e9ecef" stop-opacity="0.1"/>
    </linearGradient>
    <linearGradient id="elegant2" x1="100%" y1="0%" x2="0%" y2="100%">
      <stop offset="0%" stop-color="#dee2e6" stop-opacity="0.2"/>
      <stop offset="100%" stop-color="#ced4da" stop-opacity="0.05"/>
    </linearGradient>
  </defs>
  
  <rect width="900" height="1350" fill="url(#elegant1)"/>
  <rect width="900" height="1350" fill="url(#elegant2)"/>
  
  <!-- Elegant borders -->
  <g stroke="#6c757d" stroke-width="1" opacity="0.15" fill="none">
    <rect x="50" y="50" width="800" height="1250" rx="20"/>
    <rect x="80" y="80" width="740" height="1190" rx="15"/>
    <rect x="110" y="110" width="680" height="1130" rx="10"/>
  </g>
  
  <!-- Ornate corners -->
  <g fill="#6c757d" opacity="0.2">
    <!-- Top-left corner -->
    <path d="M50,50 L80,50 L80,80 L50,80 Z"/>
    <path d="M80,80 L110,80 L110,110 L80,110 Z"/>
    
    <!-- Top-right corner -->
    <path d="M820,50 L850,50 L850,80 L820,80 Z"/>
    <path d="M790,80 L820,80 L820,110 L790,110 Z"/>
    
    <!-- Bottom-left corner -->
    <path d="M50,1270 L80,1270 L80,1300 L50,1300 Z"/>
    <path d="M80,1240 L110,1240 L110,1270 L80,1270 Z"/>
    
    <!-- Bottom-right corner -->
    <path d="M820,1270 L850,1270 L850,1300 L820,1300 Z"/>
    <path d="M790,1240 L820,1240 L820,1270 L790,1270 Z"/>
  </g>
  
  <!-- Subtle patterns -->
  <g opacity="0.08">
    <!-- Diamond grid -->
    <g stroke="#6c757d" stroke-width="0.5" fill="none">
      <path d="M200,200 L300,150 L400,200 L300,250 Z"/>
      <path d="M500,300 L600,250 L700,300 L600,350 Z"/>
      <path d="M300,500 L400,450 L500,500 L400,550 Z"/>
      <path d="M600,600 L700,550 L800,600 L700,650 Z"/>
      <path d="M200,800 L300,750 L400,800 L300,850 Z"/>
      <path d="M500,900 L600,850 L700,900 L600,950 Z"/>
    </g>
    
    <!-- Fleur-de-lis inspired -->
    <g fill="#6c757d">
      <path d="M450,250 L470,230 L490,250 L470,270 Z"/>
      <path d="M470,230 L470,210 L490,210 L490,230 Z"/>
      <path d="M450,270 L470,290 L490,270 L470,250 Z"/>
      
      <path d="M250,550 L270,530 L290,550 L270,570 Z"/>
      <path d="M270,530 L270,510 L290,510 L290,530 Z"/>
      <path d="M250,570 L270,590 L290,570 L270,550 Z"/>
      
      <path d="M650,750 L670,730 L690,750 L670,770 Z"/>
      <path d="M670,730 L670,710 L690,710 L690,730 Z"/>
      <path d="M650,770 L670,790 L690,770 L670,750 Z"/>
    </g>
  </g>
  
  <!-- Refined lines -->
  <g stroke="#6c757d" stroke-width="0.5" opacity="0.1">
    <!-- Horizontal accent lines -->
    <line x1="150" y1="200" x2="750" y2="200"/>
    <line x1="150" y1="400" x2="750" y2="400"/>
    <line x1="150" y1="600" x2="750" y2="600"/>
    <line x1="150" y1="800" x2="750" y2="800"/>
    <line x1="150" y1="1000" x2="750" y2="1000"/>
    <line x1="150" y1="1200" x2="750" y2="1200"/>
    
    <!-- Vertical accent lines -->
    <line x1="200" y1="150" x2="200" y2="1200"/>
    <line x1="400" y1="150" x2="400" y2="1200"/>
    <line x1="600" y1="150" x2="600" y2="1200"/>
    <line x1="700" y1="150" x2="700" y2="1200"/>
  </g>
  
  <!-- Subtle dots -->
  <g fill="#6c757d" opacity="0.06">
    <circle cx="300" cy="300" r="2"/>
    <circle cx="600" cy="500" r="2"/>
    <circle cx="400" cy="700" r="2"/>
    <circle cx="700" cy="900" r="2"/>
    <circle cx="250" cy="1100" r="2"/>
    <circle cx="550" cy="1150" r="2"/>
  </g>
</svg>
