<svg xmlns="http://www.w3.org/2000/svg" viewBox="0 0 900 1350">
  <defs>
    <linearGradient id="floral-bg" x1="0%" y1="0%" x2="100%" y2="100%">
      <stop offset="0%" stop-color="#fef7f0"/>
      <stop offset="100%" stop-color="#f5f0eb"/>
    </linearGradient>
    <radialGradient id="flower1" cx="50%" cy="50%" r="50%">
      <stop offset="0%" stop-color="#ffb3d9" stop-opacity="0.3"/>
      <stop offset="100%" stop-color="#ffb3d9" stop-opacity="0"/>
    </radialGradient>
    <radialGradient id="flower2" cx="50%" cy="50%" r="50%">
      <stop offset="0%" stop-color="#b3d9ff" stop-opacity="0.25"/>
      <stop offset="100%" stop-color="#b3d9ff" stop-opacity="0"/>
    </radialGradient>
    <radialGradient id="flower3" cx="50%" cy="50%" r="50%">
      <stop offset="0%" stop-color="#d9ffb3" stop-opacity="0.2"/>
      <stop offset="100%" stop-color="#d9ffb3" stop-opacity="0"/>
    </radialGradient>
  </defs>
  
  <!-- Background -->
  <rect width="900" height="1350" fill="url(#floral-bg)"/>
  
  <!-- Floral patterns -->
  <g>
    <!-- Flower 1 -->
    <g transform="translate(200, 200)">
      <circle cx="0" cy="0" r="60" fill="url(#flower1)"/>
      <circle cx="0" cy="0" r="40" fill="url(#flower1)" opacity="0.5"/>
      <circle cx="0" cy="0" r="20" fill="url(#flower1)" opacity="0.7"/>
    </g>
    
    <!-- Flower 2 -->
    <g transform="translate(600, 300)">
      <circle cx="0" cy="0" r="50" fill="url(#flower2)"/>
      <circle cx="0" cy="0" r="35" fill="url(#flower2)" opacity="0.5"/>
      <circle cx="0" cy="0" r="15" fill="url(#flower2)" opacity="0.7"/>
    </g>
    
    <!-- Flower 3 -->
    <g transform="translate(150, 600)">
      <circle cx="0" cy="0" r="55" fill="url(#flower3)"/>
      <circle cx="0" cy="0" r="38" fill="url(#flower3)" opacity="0.5"/>
      <circle cx="0" cy="0" r="18" fill="url(#flower3)" opacity="0.7"/>
    </g>
    
    <!-- Flower 4 -->
    <g transform="translate(700, 700)">
      <circle cx="0" cy="0" r="45" fill="url(#flower1)"/>
      <circle cx="0" cy="0" r="30" fill="url(#flower1)" opacity="0.5"/>
      <circle cx="0" cy="0" r="12" fill="url(#flower1)" opacity="0.7"/>
    </g>
    
    <!-- Flower 5 -->
    <g transform="translate(300, 900)">
      <circle cx="0" cy="0" r="65" fill="url(#flower2)"/>
      <circle cx="0" cy="0" r="45" fill="url(#flower2)" opacity="0.5"/>
      <circle cx="0" cy="0" r="25" fill="url(#flower2)" opacity="0.7"/>
    </g>
    
    <!-- Flower 6 -->
    <g transform="translate(650, 1000)">
      <circle cx="0" cy="0" r="40" fill="url(#flower3)"/>
      <circle cx="0" cy="0" r="28" fill="url(#flower3)" opacity="0.5"/>
      <circle cx="0" cy="0" r="14" fill="url(#flower3)" opacity="0.7"/>
    </g>
  </g>
  
  <!-- Subtle vine patterns -->
  <g stroke="#e8d5c4" stroke-width="1" opacity="0.3">
    <path d="M100,100 Q200,150 300,100 T500,150 T700,100"/>
    <path d="M150,400 Q250,450 350,400 T550,450 T750,400"/>
    <path d="M200,700 Q300,750 400,700 T600,750 T800,700"/>
    <path d="M100,1000 Q200,1050 300,1000 T500,1050 T700,1000"/>
  </g>
</svg>
