<svg xmlns="http://www.w3.org/2000/svg" viewBox="0 0 900 1350">
  <defs>
    <linearGradient id="industrial1" x1="0%" y1="0%" x2="100%" y2="100%">
      <stop offset="0%" stop-color="#2c3e50" stop-opacity="0.3"/>
      <stop offset="100%" stop-color="#34495e" stop-opacity="0.1"/>
    </linearGradient>
    <linearGradient id="industrial2" x1="100%" y1="0%" x2="0%" y2="100%">
      <stop offset="0%" stop-color="#7f8c8d" stop-opacity="0.2"/>
      <stop offset="100%" stop-color="#95a5a6" stop-opacity="0.05"/>
    </linearGradient>
  </defs>
  
  <rect width="900" height="1350" fill="url(#industrial1)"/>
  <rect width="900" height="1350" fill="url(#industrial2)"/>
  
  <!-- Industrial grid -->
  <g stroke="#34495e" stroke-width="1" opacity="0.3" fill="none">
    <!-- Vertical lines -->
    <line x1="100" y1="0" x2="100" y2="1350"/>
    <line x1="200" y1="0" x2="200" y2="1350"/>
    <line x1="300" y1="0" x2="300" y2="1350"/>
    <line x1="400" y1="0" x2="400" y2="1350"/>
    <line x1="500" y1="0" x2="500" y2="1350"/>
    <line x1="600" y1="0" x2="600" y2="1350"/>
    <line x1="700" y1="0" x2="700" y2="1350"/>
    <line x1="800" y1="0" x2="800" y2="1350"/>
    
    <!-- Horizontal lines -->
    <line x1="0" y1="100" x2="900" y2="100"/>
    <line x1="0" y1="200" x2="900" y2="200"/>
    <line x1="0" y1="300" x2="900" y2="300"/>
    <line x1="0" y1="400" x2="900" y2="400"/>
    <line x1="0" y1="500" x2="900" y2="500"/>
    <line x1="0" y1="600" x2="900" y2="600"/>
    <line x1="0" y1="700" x2="900" y2="700"/>
    <line x1="0" y1="800" x2="900" y2="800"/>
    <line x1="0" y1="900" x2="900" y2="900"/>
    <line x1="0" y1="1000" x2="900" y2="1000"/>
    <line x1="0" y1="1100" x2="900" y2="1100"/>
    <line x1="0" y1="1200" x2="900" y2="1200"/>
    <line x1="0" y1="1300" x2="900" y2="1300"/>
  </g>
  
  <!-- Mechanical elements -->
  <g opacity="0.4">
    <!-- Gears -->
    <g fill="none" stroke="#e74c3c" stroke-width="2">
      <circle cx="200" cy="200" r="30"/>
      <circle cx="200" cy="200" r="25"/>
      <circle cx="200" cy="200" r="20"/>
      <circle cx="200" cy="200" r="15"/>
      
      <circle cx="700" cy="400" r="35"/>
      <circle cx="700" cy="400" r="30"/>
      <circle cx="700" cy="400" r="25"/>
      <circle cx="700" cy="400" r="20"/>
      
      <circle cx="400" cy="700" r="28"/>
      <circle cx="400" cy="700" r="23"/>
      <circle cx="400" cy="700" r="18"/>
      <circle cx="400" cy="700" r="13"/>
    </g>
    
    <!-- Gear teeth -->
    <g fill="#e74c3c" opacity="0.6">
      <rect x="195" y="170" width="10" height="15"/>
      <rect x="195" y="215" width="10" height="15"/>
      <rect x="170" y="195" width="15" height="10"/>
      <rect x="215" y="195" width="15" height="10"/>
      
      <rect x="695" y="370" width="10" height="15"/>
      <rect x="695" y="415" width="10" height="15"/>
      <rect x="670" y="395" width="15" height="10"/>
      <rect x="715" y="395" width="15" height="10"/>
      
      <rect x="395" y="670" width="10" height="15"/>
      <rect x="395" y="715" width="10" height="15"/>
      <rect x="370" y="695" width="15" height="10"/>
      <rect x="415" y="695" width="15" height="10"/>
    </g>
  </g>
  
  <!-- Circuit-like connections -->
  <g stroke="#3498db" stroke-width="1.5" opacity="0.5" fill="none">
    <path d="M200,200 L300,200 L300,300 L400,300"/>
    <path d="M700,400 L600,400 L600,500 L500,500"/>
    <path d="M400,700 L500,700 L500,800 L600,800"/>
    <path d="M300,300 L300,400 L200,400 L200,500"/>
    <path d="M600,600 L600,700 L700,700 L700,800"/>
  </g>
  
  <!-- Industrial bolts -->
  <g fill="#95a5a6" opacity="0.6">
    <circle cx="250" cy="250" r="3"/>
    <circle cx="750" cy="450" r="3"/>
    <circle cx="450" cy="750" r="3"/>
    <circle cx="650" cy="650" r="3"/>
    <circle cx="350" cy="950" r="3"/>
    <circle cx="550" cy="850" r="3"/>
  </g>
  
  <!-- Technical specifications -->
  <g fill="#34495e" opacity="0.4" font-family="monospace" font-size="8">
    <text x="50" y="1280">ID: BG-001</text>
    <text x="150" y="1280">TYPE: INDUSTRIAL</text>
    <text x="300" y="1280">MATERIAL: STEEL</text>
    <text x="450" y="1280">WEIGHT: 2.5kg</text>
    <text x="600" y="1280">TOLERANCE: ±0.1mm</text>
    <text x="750" y="1280">BATCH: 2024-001</text>
  </g>
</svg>
