<svg xmlns="http://www.w3.org/2000/svg" viewBox="0 0 900 1350">
  <defs>
    <radialGradient id="vintage1" cx="50%" cy="40%" r="70%">
      <stop offset="0%" stop-color="#f4e4c1" stop-opacity="0.3"/>
      <stop offset="100%" stop-color="#e6d7b8" stop-opacity="0.1"/>
    </radialGradient>
    <radialGradient id="vintage2" cx="30%" cy="70%" r="60%">
      <stop offset="0%" stop-color="#d4c4a8" stop-opacity="0.2"/>
      <stop offset="100%" stop-color="#c4b498" stop-opacity="0.05"/>
    </radialGradient>
  </defs>
  
  <rect width="900" height="1350" fill="url(#vintage1)"/>
  <rect width="900" height="1350" fill="url(#vintage2)"/>
  
  <!-- Vintage borders -->
  <g stroke="#8b7355" stroke-width="2" opacity="0.25" fill="none">
    <rect x="40" y="40" width="820" height="1270" rx="15"/>
    <rect x="60" y="60" width="780" height="1230" rx="10"/>
    <rect x="80" y="80" width="740" height="1190" rx="8"/>
  </g>
  
  <!-- Aged texture lines -->
  <g stroke="#8b7355" stroke-width="1" opacity="0.15" fill="none">
    <!-- Horizontal texture -->
    <line x1="0" y1="50" x2="900" y2="50"/>
    <line x1="0" y1="100" x2="900" y2="100"/>
    <line x1="0" y1="150" x2="900" y2="150"/>
    <line x1="0" y1="200" x2="900" y2="200"/>
    <line x1="0" y1="250" x2="900" y2="250"/>
    <line x1="0" y1="300" x2="900" y2="300"/>
    <line x1="0" y1="350" x2="900" y2="350"/>
    <line x1="0" y1="400" x2="900" y2="400"/>
    <line x1="0" y1="450" x2="900" y2="450"/>
    <line x1="0" y1="500" x2="900" y2="500"/>
    <line x1="0" y1="550" x2="900" y2="550"/>
    <line x1="0" y1="600" x2="900" y2="600"/>
    <line x1="0" y1="650" x2="900" y2="650"/>
    <line x1="0" y1="700" x2="900" y2="700"/>
    <line x1="0" y1="750" x2="900" y2="750"/>
    <line x1="0" y1="800" x2="900" y2="800"/>
    <line x1="0" y1="850" x2="900" y2="850"/>
    <line x1="0" y1="900" x2="900" y2="900"/>
    <line x1="0" y1="950" x2="900" y2="950"/>
    <line x1="0" y1="1000" x2="900" y2="1000"/>
    <line x1="0" y1="1050" x2="900" y2="1050"/>
    <line x1="0" y1="1100" x2="900" y2="1100"/>
    <line x1="0" y1="1150" x2="900" y2="1150"/>
    <line x1="0" y1="1200" x2="900" y2="1200"/>
    <line x1="0" y1="1250" x2="900" y2="1250"/>
    <line x1="0" y1="1300" x2="900" y2="1300"/>
  </g>
  
  <!-- Vintage ornaments -->
  <g fill="#8b7355" opacity="0.3">
    <!-- Fleur-de-lis -->
    <g>
      <path d="M450,200 L470,180 L490,200 L470,220 Z"/>
      <path d="M470,180 L470,160 L490,160 L490,180 Z"/>
      <path d="M450,220 L470,240 L490,220 L470,200 Z"/>
      
      <path d="M250,500 L270,480 L290,500 L270,520 Z"/>
      <path d="M270,480 L270,460 L290,460 L290,480 Z"/>
      <path d="M250,520 L270,540 L290,520 L270,500 Z"/>
      
      <path d="M650,700 L670,680 L690,700 L670,720 Z"/>
      <path d="M670,680 L670,660 L690,660 L690,680 Z"/>
      <path d="M650,720 L670,740 L690,720 L670,700 Z"/>
    </g>
    
    <!-- Classic scrolls -->
    <g>
      <path d="M150,300 Q200,250 250,300 Q200,350 150,300"/>
      <path d="M650,500 Q700,450 750,500 Q700,550 650,500"/>
      <path d="M300,800 Q350,750 400,800 Q350,850 300,800"/>
      <path d="M700,1000 Q750,950 800,1000 Q750,1050 700,1000"/>
    </g>
  </g>
  
  <!-- Aged spots -->
  <g fill="#8b7355" opacity="0.1">
    <circle cx="180" cy="180" r="8"/>
    <circle cx="720" cy="280" r="6"/>
    <circle cx="420" cy="480" r="10"/>
    <circle cx="780" cy="580" r="7"/>
    <circle cx="320" cy="780" r="9"/>
    <circle cx="680" cy="880" r="5"/>
    <circle cx="220" cy="1080" r="8"/>
    <circle cx="760" cy="1180" r="6"/>
  </g>
  
  <!-- Vintage text elements -->
  <g fill="#8b7355" opacity="0.2" font-family="serif" font-size="12" font-style="italic">
    <text x="50" y="1280">EST. 2024</text>
    <text x="200" y="1280">VINTAGE</text>
    <text x="350" y="1280">CLASSIC</text>
    <text x="500" y="1280">HERITAGE</text>
    <text x="650" y="1280">TRADITION</text>
    <text x="800" y="1280">LEGACY</text>
  </g>
</svg>
