<svg xmlns="http://www.w3.org/2000/svg" viewBox="0 0 900 1350">
  <defs>
    <radialGradient id="wc1" cx="20%" cy="30%" r="60%">
      <stop offset="0%" stop-color="#ff9a9e" stop-opacity="0.15"/>
      <stop offset="100%" stop-color="#fecfef" stop-opacity="0.05"/>
    </radialGradient>
    <radialGradient id="wc2" cx="80%" cy="70%" r="50%">
      <stop offset="0%" stop-color="#a8edea" stop-opacity="0.12"/>
      <stop offset="100%" stop-color="#fed6e3" stop-opacity="0.06"/>
    </radialGradient>
    <radialGradient id="wc3" cx="40%" cy="80%" r="40%">
      <stop offset="0%" stop-color="#ffecd2" stop-opacity="0.1"/>
      <stop offset="100%" stop-color="#fcb69f" stop-opacity="0.04"/>
    </radialGradient>
  </defs>
  
  <rect width="900" height="1350" fill="url(#wc1)"/>
  <rect width="900" height="1350" fill="url(#wc2)"/>
  <rect width="900" height="1350" fill="url(#wc3)"/>
  
  <!-- Watercolor brush strokes -->
  <g opacity="0.08">
    <!-- Pink/Red strokes -->
    <path d="M100,200 Q200,150 300,200 T500,180 Q600,200 700,220" fill="none" stroke="#ff6b6b" stroke-width="8" stroke-linecap="round"/>
    <path d="M200,400 Q300,350 400,400 T600,380 Q700,400 800,420" fill="none" stroke="#ff8e8e" stroke-width="6" stroke-linecap="round"/>
    
    <!-- Blue/Teal strokes -->
    <path d="M150,600 Q250,550 350,600 T550,580 Q650,600 750,620" fill="none" stroke="#4ecdc4" stroke-width="7" stroke-linecap="round"/>
    <path d="M100,800 Q200,750 300,800 T500,780 Q600,800 700,820" fill="none" stroke="#45b7d1" stroke-width="5" stroke-linecap="round"/>
    
    <!-- Yellow/Orange strokes -->
    <path d="M250,1000 Q350,950 450,1000 T650,980 Q750,1000 850,1020" fill="none" stroke="#f39c12" stroke-width="6" stroke-linecap="round"/>
    <path d="M300,1200 Q400,1150 500,1200 T700,1180 Q800,1200 900,1220" fill="none" stroke="#ffd166" stroke-width="5" stroke-linecap="round"/>
  </g>
  
  <!-- Soft circular washes -->
  <g opacity="0.06">
    <circle cx="200" cy="300" r="80" fill="#ff9a9e"/>
    <circle cx="700" cy="500" r="60" fill="#a8edea"/>
    <circle cx="400" cy="700" r="70" fill="#ffecd2"/>
    <circle cx="800" cy="900" r="50" fill="#fed6e3"/>
    <circle cx="300" cy="1100" r="65" fill="#fcb69f"/>
  </g>
  
  <!-- Organic shapes -->
  <g opacity="0.05">
    <ellipse cx="600" cy="200" rx="100" ry="60" fill="#ff6b6b"/>
    <ellipse cx="150" cy="500" rx="70" ry="90" fill="#4ecdc4"/>
    <ellipse cx="750" cy="700" rx="80" ry="50" fill="#f39c12"/>
    <ellipse cx="450" cy="1000" rx="60" ry="80" fill="#9b59b6"/>
  </g>
</svg>
