<svg xmlns="http://www.w3.org/2000/svg" viewBox="0 0 900 1350">
  <defs>
    <linearGradient id="wc2-bg" x1="0%" y1="0%" x2="100%" y2="100%">
      <stop offset="0%" stop-color="#fefefe"/>
      <stop offset="100%" stop-color="#f8f9fa"/>
    </linearGradient>
    <radialGradient id="paint1" cx="30%" cy="30%" r="70%">
      <stop offset="0%" stop-color="#ff6b9d" stop-opacity="0.4"/>
      <stop offset="100%" stop-color="#ff6b9d" stop-opacity="0"/>
    </radialGradient>
    <radialGradient id="paint2" cx="70%" cy="40%" r="60%">
      <stop offset="0%" stop-color="#4ecdc4" stop-opacity="0.35"/>
      <stop offset="100%" stop-color="#4ecdc4" stop-opacity="0"/>
    </radialGradient>
    <radialGradient id="paint3" cx="40%" cy="70%" r="65%">
      <stop offset="0%" stop-color="#ffe66d" stop-opacity="0.3"/>
      <stop offset="100%" stop-color="#ffe66d" stop-opacity="0"/>
    </radialGradient>
    <radialGradient id="paint4" cx="80%" cy="80%" r="55%">
      <stop offset="0%" stop-color="#a8e6cf" stop-opacity="0.25"/>
      <stop offset="100%" stop-color="#a8e6cf" stop-opacity="0"/>
    </radialGradient>
    <filter id="watercolor-blur">
      <feGaussianBlur stdDeviation="12"/>
    </filter>
  </defs>
  
  <!-- Background -->
  <rect width="900" height="1350" fill="url(#wc2-bg)"/>
  
  <!-- Watercolor paint blobs -->
  <g filter="url(#watercolor-blur)">
    <!-- Pink paint -->
    <ellipse cx="250" cy="300" rx="180" ry="120" fill="url(#paint1)"/>
    <ellipse cx="600" cy="200" rx="140" ry="90" fill="url(#paint1)" opacity="0.8"/>
    <ellipse cx="150" cy="800" rx="160" ry="100" fill="url(#paint1)" opacity="0.6"/>
    
    <!-- Teal paint -->
    <ellipse cx="650" cy="500" rx="200" ry="130" fill="url(#paint2)"/>
    <ellipse cx="200" cy="600" rx="120" ry="80" fill="url(#paint2)" opacity="0.7"/>
    <ellipse cx="700" cy="1000" rx="150" ry="95" fill="url(#paint2)" opacity="0.5"/>
    
    <!-- Yellow paint -->
    <ellipse cx="400" cy="400" rx="170" ry="110" fill="url(#paint3)"/>
    <ellipse cx="100" cy="1000" rx="130" ry="85" fill="url(#paint3)" opacity="0.8"/>
    <ellipse cx="550" cy="1200" rx="140" ry="90" fill="url(#paint3)" opacity="0.6"/>
    
    <!-- Mint paint -->
    <ellipse cx="300" cy="1100" rx="160" ry="100" fill="url(#paint4)"/>
    <ellipse cx="750" cy="700" rx="120" ry="75" fill="url(#paint4)" opacity="0.7"/>
    <ellipse cx="450" cy="900" rx="180" ry="115" fill="url(#paint4)" opacity="0.5"/>
  </g>
  
  <!-- Subtle texture overlay -->
  <rect width="900" height="1350" fill="url(#wc2-bg)" opacity="0.1"/>
  
  <!-- Fine details -->
  <g stroke="#e2e8f0" stroke-width="0.3" opacity="0.2">
    <path d="M100,200 Q200,180 300,200 T500,180 T700,200"/>
    <path d="M150,500 Q250,480 350,500 T550,480 T750,500"/>
    <path d="M200,800 Q300,780 400,800 T600,780 T800,800"/>
    <path d="M100,1100 Q200,1080 300,1100 T500,1080 T700,1100"/>
  </g>
</svg>
